{
    "asset" : {
        "generator" : "Khronos glTF Blender I/O v1.2.31",
        "version" : "2.0"
    },
    "scene" : 0,
    "scenes" : [
        {
            "name" : "Scene",
            "nodes" : [
                0
            ]
        }
    ],
    "nodes" : [
        {
            "mesh" : 0,
            "name" : "Cube",
            "rotation" : [
                0,
                -0.7071067690849304,
                0,
                0.7071067690849304
            ],
            "scale" : [
                1,
                0.08460669964551926,
                0.16978055238723755
            ],
            "translation" : [
                -5.400539398193359,
                -0.08353447914123535,
                -4.531116485595703
            ]
        }
    ],
    "meshes" : [
        {
            "name" : "Cube",
            "primitives" : [
                {
                    "attributes" : {
                        "POSITION" : 0,
                        "NORMAL" : 1,
                        "TEXCOORD_0" : 2
                    },
                    "indices" : 3
                }
            ]
        }
    ],
    "accessors" : [
        {
            "bufferView" : 0,
            "componentType" : 5126,
            "count" : 3136,
            "max" : [
                10.236801147460938,
                1,
                1
            ],
            "min" : [
                -1,
                -1,
                -65.00006866455078
            ],
            "type" : "VEC3"
        },
        {
            "bufferView" : 1,
            "componentType" : 5126,
            "count" : 3136,
            "type" : "VEC3"
        },
        {
            "bufferView" : 2,
            "componentType" : 5126,
            "count" : 3136,
            "type" : "VEC2"
        },
        {
            "bufferView" : 3,
            "componentType" : 5123,
            "count" : 9690,
            "type" : "SCALAR"
        }
    ],
    "bufferViews" : [
        {
            "buffer" : 0,
            "byteLength" : 37632,
            "byteOffset" : 0
        },
        {
            "buffer" : 0,
            "byteLength" : 37632,
            "byteOffset" : 37632
        },
        {
            "buffer" : 0,
            "byteLength" : 25088,
            "byteOffset" : 75264
        },
        {
            "buffer" : 0,
            "byteLength" : 19380,
            "byteOffset" : 100352
        }
    ],
    "buffers" : [
        {
            "byteLength" : 119732,
            "uri" : "data:application/octet-stream;base64,"
        }
    ]
}
