{
    "asset" : {
        "generator" : "Khronos glTF Blender I/O v1.2.31",
        "version" : "2.0"
    },
    "scene" : 0,
    "scenes" : [
        {
            "name" : "Scene",
            "nodes" : [
                0
            ]
        }
    ],
    "nodes" : [
        {
            "mesh" : 0,
            "name" : "Building"
        }
    ],
    "materials" : [
        {
            "doubleSided" : true,
            "emissiveFactor" : [
                0,
                0,
                0
            ],
            "name" : "building",
            "pbrMetallicRoughness" : {
                "baseColorTexture" : {
                    "index" : 0,
                    "texCoord" : 0
                },
                "metallicFactor" : 0,
                "roughnessFactor" : 0.5
            }
        },
        {
            "doubleSided" : true,
            "emissiveFactor" : [
                0,
                0,
                0
            ],
            "name" : "windows",
            "pbrMetallicRoughness" : {
                "baseColorFactor" : [
                    1,
                    1,
                    1,
                    1
                ],
                "metallicFactor" : 0,
                "roughnessFactor" : 0.13181817531585693
            }
        }
    ],
    "meshes" : [
        {
            "name" : "Cube.010",
            "primitives" : [
                {
                    "attributes" : {
                        "POSITION" : 0,
                        "NORMAL" : 1,
                        "TEXCOORD_0" : 2
                    },
                    "indices" : 3,
                    "material" : 0
                },
                {
                    "attributes" : {
                        "POSITION" : 4,
                        "NORMAL" : 5,
                        "TEXCOORD_0" : 6
                    },
                    "indices" : 7,
                    "material" : 1
                }
            ]
        }
    ],
    "textures" : [
        {
            "source" : 0
        }
    ],
    "images" : [
        {
            "bufferView" : 4,
            "mimeType" : "image/png",
            "name" : "bank_uv"
        }
    ],
    "accessors" : [
        {
            "bufferView" : 0,
            "componentType" : 5126,
            "count" : 1222,
            "max" : [
                1,
                4.879424571990967,
                2.004556655883789
            ],
            "min" : [
                -1,
                0,
                -1
            ],
            "type" : "VEC3"
        },
        {
            "bufferView" : 1,
            "componentType" : 5126,
            "count" : 1222,
            "type" : "VEC3"
        },
        {
            "bufferView" : 2,
            "componentType" : 5126,
            "count" : 1222,
            "type" : "VEC2"
        },
        {
            "bufferView" : 3,
            "componentType" : 5123,
            "count" : 2130,
            "type" : "SCALAR"
        },
        {
            "bufferView" : 5,
            "componentType" : 5126,
            "count" : 1312,
            "max" : [
                0.9242823123931885,
                3.747034788131714,
                1.0195432901382446
            ],
            "min" : [
                -0.9242823123931885,
                0.28530681133270264,
                -0.9242823123931885
            ],
            "type" : "VEC3"
        },
        {
            "bufferView" : 6,
            "componentType" : 5126,
            "count" : 1312,
            "type" : "VEC3"
        },
        {
            "bufferView" : 7,
            "componentType" : 5126,
            "count" : 1312,
            "type" : "VEC2"
        },
        {
            "bufferView" : 8,
            "componentType" : 5123,
            "count" : 3048,
            "type" : "SCALAR"
        }
    ],
    "bufferViews" : [
        {
            "buffer" : 0,
            "byteLength" : 14664,
            "byteOffset" : 0
        },
        {
            "buffer" : 0,
            "byteLength" : 14664,
            "byteOffset" : 14664
        },
        {
            "buffer" : 0,
            "byteLength" : 9776,
            "byteOffset" : 29328
        },
        {
            "buffer" : 0,
            "byteLength" : 4260,
            "byteOffset" : 39104
        },
        {
            "buffer" : 0,
            "byteLength" : 96602,
            "byteOffset" : 43364
        },
        {
            "buffer" : 0,
            "byteLength" : 15744,
            "byteOffset" : 139968
        },
        {
            "buffer" : 0,
            "byteLength" : 15744,
            "byteOffset" : 155712
        },
        {
            "buffer" : 0,
            "byteLength" : 10496,
            "byteOffset" : 171456
        },
        {
            "buffer" : 0,
            "byteLength" : 6096,
            "byteOffset" : 181952
        }
    ],
    "buffers" : [
        {
            "byteLength" : 188048,
            "uri" : "data:application/octet-stream;base64,"
        }
    ]
}
