{
    "asset" : {
        "generator" : "Khronos glTF Blender I/O v1.2.31",
        "version" : "2.0"
    },
    "scene" : 0,
    "scenes" : [
        {
            "name" : "Scene",
            "nodes" : [
                0
            ]
        }
    ],
    "nodes" : [
        {
            "mesh" : 0,
            "name" : "Bank_JP_Bldg",
            "translation" : [
                3.5951788425445557,
                0,
                0
            ]
        }
    ],
    "materials" : [
        {
            "doubleSided" : true,
            "emissiveFactor" : [
                0,
                0,
                0
            ],
            "name" : "building",
            "pbrMetallicRoughness" : {
                "baseColorTexture" : {
                    "index" : 0,
                    "texCoord" : 0
                },
                "metallicFactor" : 0,
                "roughnessFactor" : 0.5
            }
        },
        {
            "doubleSided" : true,
            "emissiveFactor" : [
                0,
                0,
                0
            ],
            "name" : "windows",
            "pbrMetallicRoughness" : {
                "baseColorFactor" : [
                    1,
                    1,
                    1,
                    1
                ],
                "metallicFactor" : 0,
                "roughnessFactor" : 0.13181817531585693
            }
        }
    ],
    "meshes" : [
        {
            "name" : "Cube.035",
            "primitives" : [
                {
                    "attributes" : {
                        "POSITION" : 0,
                        "NORMAL" : 1,
                        "TEXCOORD_0" : 2
                    },
                    "indices" : 3,
                    "material" : 0
                },
                {
                    "attributes" : {
                        "POSITION" : 4,
                        "NORMAL" : 5,
                        "TEXCOORD_0" : 6
                    },
                    "indices" : 7,
                    "material" : 1
                }
            ]
        }
    ],
    "textures" : [
        {
            "source" : 0
        }
    ],
    "images" : [
        {
            "bufferView" : 4,
            "mimeType" : "image/png",
            "name" : "bank_uv"
        }
    ],
    "accessors" : [
        {
            "bufferView" : 0,
            "componentType" : 5126,
            "count" : 1235,
            "max" : [
                1,
                4.879424571990967,
                2.004556655883789
            ],
            "min" : [
                -1,
                0,
                -1
            ],
            "type" : "VEC3"
        },
        {
            "bufferView" : 1,
            "componentType" : 5126,
            "count" : 1235,
            "type" : "VEC3"
        },
        {
            "bufferView" : 2,
            "componentType" : 5126,
            "count" : 1235,
            "type" : "VEC2"
        },
        {
            "bufferView" : 3,
            "componentType" : 5123,
            "count" : 2175,
            "type" : "SCALAR"
        },
        {
            "bufferView" : 5,
            "componentType" : 5126,
            "count" : 1292,
            "max" : [
                0.9242823123931885,
                3.80643630027771,
                1.0226393938064575
            ],
            "min" : [
                -0.9242823123931885,
                0.28530681133270264,
                -0.9242823123931885
            ],
            "type" : "VEC3"
        },
        {
            "bufferView" : 6,
            "componentType" : 5126,
            "count" : 1292,
            "type" : "VEC3"
        },
        {
            "bufferView" : 7,
            "componentType" : 5126,
            "count" : 1292,
            "type" : "VEC2"
        },
        {
            "bufferView" : 8,
            "componentType" : 5123,
            "count" : 3135,
            "type" : "SCALAR"
        }
    ],
    "bufferViews" : [
        {
            "buffer" : 0,
            "byteLength" : 14820,
            "byteOffset" : 0
        },
        {
            "buffer" : 0,
            "byteLength" : 14820,
            "byteOffset" : 14820
        },
        {
            "buffer" : 0,
            "byteLength" : 9880,
            "byteOffset" : 29640
        },
        {
            "buffer" : 0,
            "byteLength" : 4350,
            "byteOffset" : 39520
        },
        {
            "buffer" : 0,
            "byteLength" : 96602,
            "byteOffset" : 43872
        },
        {
            "buffer" : 0,
            "byteLength" : 15504,
            "byteOffset" : 140476
        },
        {
            "buffer" : 0,
            "byteLength" : 15504,
            "byteOffset" : 155980
        },
        {
            "buffer" : 0,
            "byteLength" : 10336,
            "byteOffset" : 171484
        },
        {
            "buffer" : 0,
            "byteLength" : 6270,
            "byteOffset" : 181820
        }
    ],
    "buffers" : [
        {
            "byteLength" : 188092,
            "uri" : "data:application/octet-stream;base64,"
        }
    ]
}
