{
    "asset" : {
        "generator" : "Khronos glTF Blender I/O v1.2.31",
        "version" : "2.0"
    },
    "scene" : 0,
    "scenes" : [
        {
            "name" : "Scene",
            "nodes" : [
                0
            ]
        }
    ],
    "nodes" : [
        {
            "mesh" : 0,
            "name" : "Banco_Bldg",
            "translation" : [
                -3.3596384525299072,
                0,
                0
            ]
        }
    ],
    "materials" : [
        {
            "doubleSided" : true,
            "emissiveFactor" : [
                0,
                0,
                0
            ],
            "name" : "building",
            "pbrMetallicRoughness" : {
                "baseColorTexture" : {
                    "index" : 0,
                    "texCoord" : 0
                },
                "metallicFactor" : 0,
                "roughnessFactor" : 0.5
            }
        },
        {
            "doubleSided" : true,
            "emissiveFactor" : [
                0,
                0,
                0
            ],
            "name" : "windows",
            "pbrMetallicRoughness" : {
                "baseColorFactor" : [
                    1,
                    1,
                    1,
                    1
                ],
                "metallicFactor" : 0,
                "roughnessFactor" : 0.13181817531585693
            }
        }
    ],
    "meshes" : [
        {
            "name" : "Cube.029",
            "primitives" : [
                {
                    "attributes" : {
                        "POSITION" : 0,
                        "NORMAL" : 1,
                        "TEXCOORD_0" : 2
                    },
                    "indices" : 3,
                    "material" : 0
                },
                {
                    "attributes" : {
                        "POSITION" : 4,
                        "NORMAL" : 5,
                        "TEXCOORD_0" : 6
                    },
                    "indices" : 7,
                    "material" : 1
                }
            ]
        }
    ],
    "textures" : [
        {
            "source" : 0
        }
    ],
    "images" : [
        {
            "bufferView" : 4,
            "mimeType" : "image/png",
            "name" : "bank_uv"
        }
    ],
    "accessors" : [
        {
            "bufferView" : 0,
            "componentType" : 5126,
            "count" : 1408,
            "max" : [
                1,
                4.879424571990967,
                2.004556655883789
            ],
            "min" : [
                -1,
                0,
                -1
            ],
            "type" : "VEC3"
        },
        {
            "bufferView" : 1,
            "componentType" : 5126,
            "count" : 1408,
            "type" : "VEC3"
        },
        {
            "bufferView" : 2,
            "componentType" : 5126,
            "count" : 1408,
            "type" : "VEC2"
        },
        {
            "bufferView" : 3,
            "componentType" : 5123,
            "count" : 2682,
            "type" : "SCALAR"
        },
        {
            "bufferView" : 5,
            "componentType" : 5126,
            "count" : 2792,
            "max" : [
                0.9242823123931885,
                3.739177703857422,
                1.0174208879470825
            ],
            "min" : [
                -0.9242823123931885,
                0.28530681133270264,
                -0.9242823123931885
            ],
            "type" : "VEC3"
        },
        {
            "bufferView" : 6,
            "componentType" : 5126,
            "count" : 2792,
            "type" : "VEC3"
        },
        {
            "bufferView" : 7,
            "componentType" : 5126,
            "count" : 2792,
            "type" : "VEC2"
        },
        {
            "bufferView" : 8,
            "componentType" : 5123,
            "count" : 6894,
            "type" : "SCALAR"
        }
    ],
    "bufferViews" : [
        {
            "buffer" : 0,
            "byteLength" : 16896,
            "byteOffset" : 0
        },
        {
            "buffer" : 0,
            "byteLength" : 16896,
            "byteOffset" : 16896
        },
        {
            "buffer" : 0,
            "byteLength" : 11264,
            "byteOffset" : 33792
        },
        {
            "buffer" : 0,
            "byteLength" : 5364,
            "byteOffset" : 45056
        },
        {
            "buffer" : 0,
            "byteLength" : 96602,
            "byteOffset" : 50420
        },
        {
            "buffer" : 0,
            "byteLength" : 33504,
            "byteOffset" : 147024
        },
        {
            "buffer" : 0,
            "byteLength" : 33504,
            "byteOffset" : 180528
        },
        {
            "buffer" : 0,
            "byteLength" : 22336,
            "byteOffset" : 214032
        },
        {
            "buffer" : 0,
            "byteLength" : 13788,
            "byteOffset" : 236368
        }
    ],
    "buffers" : [
        {
            "byteLength" : 250156,
            "uri" : "data:application/octet-stream;base64,"
        }
    ]
}
