{
    "asset" : {
        "generator" : "Khronos glTF Blender I/O v1.2.31",
        "version" : "2.0"
    },
    "scene" : 0,
    "scenes" : [
        {
            "name" : "Scene",
            "nodes" : [
                0
            ]
        }
    ],
    "nodes" : [
        {
            "mesh" : 0,
            "name" : "HQ-Final"
        }
    ],
    "materials" : [
        {
            "doubleSided" : true,
            "emissiveFactor" : [
                0,
                0,
                0
            ],
            "name" : "building",
            "pbrMetallicRoughness" : {
                "baseColorTexture" : {
                    "index" : 0,
                    "texCoord" : 0
                },
                "metallicFactor" : 0,
                "roughnessFactor" : 0.5
            }
        },
        {
            "doubleSided" : true,
            "emissiveFactor" : [
                0,
                0,
                0
            ],
            "name" : "windows",
            "pbrMetallicRoughness" : {
                "baseColorFactor" : [
                    1,
                    1,
                    1,
                    1
                ],
                "metallicFactor" : 0,
                "roughnessFactor" : 0.13181817531585693
            }
        },
        {
            "doubleSided" : true,
            "emissiveFactor" : [
                0,
                0,
                0
            ],
            "name" : "windows-dark",
            "pbrMetallicRoughness" : {
                "baseColorFactor" : [
                    0.08713995665311813,
                    0.08713995665311813,
                    0.08713995665311813,
                    1
                ],
                "metallicFactor" : 0,
                "roughnessFactor" : 0.13181817531585693
            }
        }
    ],
    "meshes" : [
        {
            "name" : "Cube.006",
            "primitives" : [
                {
                    "attributes" : {
                        "POSITION" : 0,
                        "NORMAL" : 1,
                        "TEXCOORD_0" : 2
                    },
                    "indices" : 3,
                    "material" : 0
                },
                {
                    "attributes" : {
                        "POSITION" : 4,
                        "NORMAL" : 5,
                        "TEXCOORD_0" : 6
                    },
                    "indices" : 7,
                    "material" : 1
                },
                {
                    "attributes" : {
                        "POSITION" : 8,
                        "NORMAL" : 9,
                        "TEXCOORD_0" : 10
                    },
                    "indices" : 11,
                    "material" : 2
                }
            ]
        }
    ],
    "textures" : [
        {
            "source" : 0
        }
    ],
    "images" : [
        {
            "bufferView" : 4,
            "mimeType" : "image/png",
            "name" : "bank_uv"
        }
    ],
    "accessors" : [
        {
            "bufferView" : 0,
            "componentType" : 5126,
            "count" : 2437,
            "max" : [
                2.1394059658050537,
                5.309935092926025,
                2.363466501235962
            ],
            "min" : [
                -2.1394059658050537,
                0,
                -1.9455724954605103
            ],
            "type" : "VEC3"
        },
        {
            "bufferView" : 1,
            "componentType" : 5126,
            "count" : 2437,
            "type" : "VEC3"
        },
        {
            "bufferView" : 2,
            "componentType" : 5126,
            "count" : 2437,
            "type" : "VEC2"
        },
        {
            "bufferView" : 3,
            "componentType" : 5123,
            "count" : 4260,
            "type" : "SCALAR"
        },
        {
            "bufferView" : 5,
            "componentType" : 5126,
            "count" : 288,
            "max" : [
                1.6770509481430054,
                5.148472785949707,
                1.22347891330719
            ],
            "min" : [
                -1.6770509481430054,
                0,
                -1.22347891330719
            ],
            "type" : "VEC3"
        },
        {
            "bufferView" : 6,
            "componentType" : 5126,
            "count" : 288,
            "type" : "VEC3"
        },
        {
            "bufferView" : 7,
            "componentType" : 5126,
            "count" : 288,
            "type" : "VEC2"
        },
        {
            "bufferView" : 8,
            "componentType" : 5123,
            "count" : 492,
            "type" : "SCALAR"
        },
        {
            "bufferView" : 9,
            "componentType" : 5126,
            "count" : 30,
            "max" : [
                1.6770509481430054,
                5.148472785949707,
                1.22347891330719
            ],
            "min" : [
                -1.6770509481430054,
                0,
                0.804467499256134
            ],
            "type" : "VEC3"
        },
        {
            "bufferView" : 10,
            "componentType" : 5126,
            "count" : 30,
            "type" : "VEC3"
        },
        {
            "bufferView" : 11,
            "componentType" : 5126,
            "count" : 30,
            "type" : "VEC2"
        },
        {
            "bufferView" : 12,
            "componentType" : 5123,
            "count" : 48,
            "type" : "SCALAR"
        }
    ],
    "bufferViews" : [
        {
            "buffer" : 0,
            "byteLength" : 29244,
            "byteOffset" : 0
        },
        {
            "buffer" : 0,
            "byteLength" : 29244,
            "byteOffset" : 29244
        },
        {
            "buffer" : 0,
            "byteLength" : 19496,
            "byteOffset" : 58488
        },
        {
            "buffer" : 0,
            "byteLength" : 8520,
            "byteOffset" : 77984
        },
        {
            "buffer" : 0,
            "byteLength" : 96602,
            "byteOffset" : 86504
        },
        {
            "buffer" : 0,
            "byteLength" : 3456,
            "byteOffset" : 183108
        },
        {
            "buffer" : 0,
            "byteLength" : 3456,
            "byteOffset" : 186564
        },
        {
            "buffer" : 0,
            "byteLength" : 2304,
            "byteOffset" : 190020
        },
        {
            "buffer" : 0,
            "byteLength" : 984,
            "byteOffset" : 192324
        },
        {
            "buffer" : 0,
            "byteLength" : 360,
            "byteOffset" : 193308
        },
        {
            "buffer" : 0,
            "byteLength" : 360,
            "byteOffset" : 193668
        },
        {
            "buffer" : 0,
            "byteLength" : 240,
            "byteOffset" : 194028
        },
        {
            "buffer" : 0,
            "byteLength" : 96,
            "byteOffset" : 194268
        }
    ],
    "buffers" : [
        {
            "byteLength" : 194364,
            "uri" : "data:application/octet-stream;base64,"
        }
    ]
}
