{
    "asset" : {
        "generator" : "Khronos glTF Blender I/O v1.2.31",
        "version" : "2.0"
    },
    "scene" : 0,
    "scenes" : [
        {
            "name" : "Scene",
            "nodes" : [
                0,
                1
            ]
        }
    ],
    "nodes" : [
        {
            "mesh" : 0,
            "name" : "Bank"
        },
        {
            "mesh" : 1,
            "name" : "Cube",
            "translation" : [
                0,
                6.598940849304199,
                0
            ]
        }
    ],
    "materials" : [
        {
            "doubleSided" : true,
            "emissiveFactor" : [
                0,
                0,
                0
            ],
            "name" : "Material.002",
            "pbrMetallicRoughness" : {
                "baseColorFactor" : [
                    0.4769895374774933,
                    0.09041628986597061,
                    0.07120351493358612,
                    1
                ],
                "metallicFactor" : 0,
                "roughnessFactor" : 1
            }
        },
        {
            "doubleSided" : true,
            "emissiveFactor" : [
                0,
                0,
                0
            ],
            "name" : "Material.003",
            "pbrMetallicRoughness" : {
                "baseColorFactor" : [
                    0.049154024571180344,
                    0.1856270581483841,
                    0.8000000715255737,
                    1
                ],
                "metallicFactor" : 0.8628571629524231,
                "roughnessFactor" : 0.08285713195800781
            }
        },
        {
            "doubleSided" : true,
            "emissiveFactor" : [
                0,
                0,
                0
            ],
            "name" : "Material.004",
            "pbrMetallicRoughness" : {
                "baseColorFactor" : [
                    0.09462571144104004,
                    0.024665318429470062,
                    0.005264001898467541,
                    1
                ],
                "metallicFactor" : 0,
                "roughnessFactor" : 0.8828571438789368
            }
        },
        {
            "doubleSided" : true,
            "emissiveFactor" : [
                0,
                0,
                0
            ],
            "name" : "Material.001",
            "pbrMetallicRoughness" : {
                "baseColorFactor" : [
                    0.38437432050704956,
                    0.38437432050704956,
                    0.38437432050704956,
                    1
                ],
                "metallicFactor" : 0.7972726821899414,
                "roughnessFactor" : 0.2863636314868927
            }
        }
    ],
    "meshes" : [
        {
            "name" : "Plane",
            "primitives" : [
                {
                    "attributes" : {
                        "POSITION" : 0,
                        "NORMAL" : 1,
                        "TEXCOORD_0" : 2
                    },
                    "indices" : 3,
                    "material" : 0
                },
                {
                    "attributes" : {
                        "POSITION" : 4,
                        "NORMAL" : 5,
                        "TEXCOORD_0" : 6
                    },
                    "indices" : 7,
                    "material" : 1
                },
                {
                    "attributes" : {
                        "POSITION" : 8,
                        "NORMAL" : 9,
                        "TEXCOORD_0" : 10
                    },
                    "indices" : 11,
                    "material" : 2
                }
            ]
        },
        {
            "name" : "Cube.001",
            "primitives" : [
                {
                    "attributes" : {
                        "POSITION" : 12,
                        "NORMAL" : 13,
                        "TEXCOORD_0" : 14
                    },
                    "indices" : 15,
                    "material" : 3
                }
            ]
        }
    ],
    "accessors" : [
        {
            "bufferView" : 0,
            "componentType" : 5126,
            "count" : 3664,
            "max" : [
                2.5,
                5.892554759979248,
                2.5
            ],
            "min" : [
                -2.5,
                0,
                -2.5
            ],
            "type" : "VEC3"
        },
        {
            "bufferView" : 1,
            "componentType" : 5126,
            "count" : 3664,
            "type" : "VEC3"
        },
        {
            "bufferView" : 2,
            "componentType" : 5126,
            "count" : 3664,
            "type" : "VEC2"
        },
        {
            "bufferView" : 3,
            "componentType" : 5123,
            "count" : 6264,
            "type" : "SCALAR"
        },
        {
            "bufferView" : 4,
            "componentType" : 5126,
            "count" : 768,
            "max" : [
                2.061803102493286,
                5.240659236907959,
                2.056187629699707
            ],
            "min" : [
                -2.061803102493286,
                1.2309070825576782,
                -2.056187629699707
            ],
            "type" : "VEC3"
        },
        {
            "bufferView" : 5,
            "componentType" : 5126,
            "count" : 768,
            "type" : "VEC3"
        },
        {
            "bufferView" : 6,
            "componentType" : 5126,
            "count" : 768,
            "type" : "VEC2"
        },
        {
            "bufferView" : 7,
            "componentType" : 5123,
            "count" : 1152,
            "type" : "SCALAR"
        },
        {
            "bufferView" : 8,
            "componentType" : 5126,
            "count" : 16,
            "max" : [
                0.7140628099441528,
                1.0571925640106201,
                0.8738543391227722
            ],
            "min" : [
                -0.7140628099441528,
                0.0430905744433403,
                -0.8738543391227722
            ],
            "type" : "VEC3"
        },
        {
            "bufferView" : 9,
            "componentType" : 5126,
            "count" : 16,
            "type" : "VEC3"
        },
        {
            "bufferView" : 10,
            "componentType" : 5126,
            "count" : 16,
            "type" : "VEC2"
        },
        {
            "bufferView" : 11,
            "componentType" : 5123,
            "count" : 24,
            "type" : "SCALAR"
        },
        {
            "bufferView" : 12,
            "componentType" : 5126,
            "count" : 1466,
            "max" : [
                1.7326408624649048,
                3.1712491512298584,
                1.9794048070907593
            ],
            "min" : [
                -1.6302021741867065,
                -0.9950724244117737,
                -1.9794049263000488
            ],
            "type" : "VEC3"
        },
        {
            "bufferView" : 13,
            "componentType" : 5126,
            "count" : 1466,
            "type" : "VEC3"
        },
        {
            "bufferView" : 14,
            "componentType" : 5126,
            "count" : 1466,
            "type" : "VEC2"
        },
        {
            "bufferView" : 15,
            "componentType" : 5123,
            "count" : 7200,
            "type" : "SCALAR"
        }
    ],
    "bufferViews" : [
        {
            "buffer" : 0,
            "byteLength" : 43968,
            "byteOffset" : 0
        },
        {
            "buffer" : 0,
            "byteLength" : 43968,
            "byteOffset" : 43968
        },
        {
            "buffer" : 0,
            "byteLength" : 29312,
            "byteOffset" : 87936
        },
        {
            "buffer" : 0,
            "byteLength" : 12528,
            "byteOffset" : 117248
        },
        {
            "buffer" : 0,
            "byteLength" : 9216,
            "byteOffset" : 129776
        },
        {
            "buffer" : 0,
            "byteLength" : 9216,
            "byteOffset" : 138992
        },
        {
            "buffer" : 0,
            "byteLength" : 6144,
            "byteOffset" : 148208
        },
        {
            "buffer" : 0,
            "byteLength" : 2304,
            "byteOffset" : 154352
        },
        {
            "buffer" : 0,
            "byteLength" : 192,
            "byteOffset" : 156656
        },
        {
            "buffer" : 0,
            "byteLength" : 192,
            "byteOffset" : 156848
        },
        {
            "buffer" : 0,
            "byteLength" : 128,
            "byteOffset" : 157040
        },
        {
            "buffer" : 0,
            "byteLength" : 48,
            "byteOffset" : 157168
        },
        {
            "buffer" : 0,
            "byteLength" : 17592,
            "byteOffset" : 157216
        },
        {
            "buffer" : 0,
            "byteLength" : 17592,
            "byteOffset" : 174808
        },
        {
            "buffer" : 0,
            "byteLength" : 11728,
            "byteOffset" : 192400
        },
        {
            "buffer" : 0,
            "byteLength" : 14400,
            "byteOffset" : 204128
        }
    ],
    "buffers" : [
        {
            "byteLength" : 218528,
            "uri" : "data:application/octet-stream;base64,"
        }
    ]
}
