<svg xmlns="http://www.w3.org/2000/svg" viewBox="0 0 1920.5 933.7"><defs><style>.a{fill:#b8b8d3;}.b{fill:#c3c3e0;}.c{fill:#fff;}.d{fill:#cccce5;}.e{fill:#dddded;}.f{fill:#f0f0f7;}.g,.h{fill:none;stroke:#5c636b;stroke-linecap:round;stroke-linejoin:round;stroke-width:8px;}.h{stroke-dasharray:50.06 50.06;}</style></defs><title>leaderboard-bg</title><polygon class="a" points="2 464.5 2 534.2 95.3 579.5 173.1 416.7 2 464.5"/><path class="b" d="M18.7,1081H405V642L172.3,565.7,75.1,675.6,1.2,641.5V1081Z" transform="translate(0.8 -149)"/><polygon class="c" points="188.5 448.3 128.3 528.4 397.4 587.2 393.4 516.6 188.5 448.3"/><polygon class="a" points="1624.8 475.5 1624.8 545.2 1708.5 590.5 1778.1 427.7 1624.8 475.5"/><polygon class="b" points="1920.5 928.6 1920.5 479.8 1778.1 427.7 1691 537.6 1624.8 503.5 1624.8 928.6 1920.5 928.6"/><polygon class="c" points="1920.5 507.1 1792 459.3 1738 539.4 1920.5 583.9 1920.5 507.1"/><polygon class="a" points="980 54 295.2 494.3 493.2 597.9 1136.8 319.5 980 54"/><path class="d" d="M1912.5,1082.4q3.6,0,7.2.3v-314L1449.5,384.3,1292.8,513.8,979.3,203,803.2,316.2l11,158.7L624.5,533.2l-330,110.1L68.2,885.6v196.8Z" transform="translate(0.8 -149)"/><polygon class="a" points="1450.3 235.3 1242.8 315.2 1310.1 526.7 1450.3 235.3"/><polygon class="c" points="985.8 97 849.4 183.2 856.2 333.1 358.3 505.4 1185.3 359 1197.2 314.3 985.8 97"/><polygon class="c" points="1476.9 303.1 1367.8 524.1 1916.8 704 1476.9 303.1"/><polygon class="e" points="40.5 722.2 3 737.7 3 826.6 120.2 925.5 410.8 685.4 439.3 543 40.5 722.2"/><polygon class="e" points="1029.3 495.6 531.8 784 705 895.2 1133.7 690.6 1029.3 495.6"/><polygon class="e" points="1852.3 701.7 1698.5 774.9 1806.7 864.5 1852.3 701.7"/><polygon class="f" points="1919 932.1 1919 739 1852.3 701.7 1795.3 811.6 1459.2 547 1350.9 628.4 1134.4 433.1 1012.8 504.2 1020.5 604 889.4 640.6 661.5 709.8 439.3 543 311.1 673.2 245 677.1 97.5 880.7 0 801 0 932.1 1919 932.1"/><polygon class="e" points="1459.2 547 1309.6 597.2 1362.3 730.2 1459.2 547"/><polygon class="c" points="439 577.9 333 693.3 264.7 695.6 125.8 874.6 533.2 648.5 439 577.9"/><polygon class="c" points="1138.4 460.1 1044.2 514.3 1048.9 608.5 705.1 716.8 1276.1 624.8 1284.4 596.7 1138.4 460.1"/><polygon class="c" points="1477.5 589.6 1402.2 728.6 1781.3 841.6 1477.5 589.6"/><polygon class="c" points="1919 766.1 1861.4 733.3 1826.1 813.4 1919 848.1 1919 766.1"/><line class="g" x1="209.8" y1="767" x2="234.8" y2="767"/><path class="h" d="M284.1,916H1764a60,60,0,0,0,60-60V715a60,60,0,0,0-60-60H307a60,60,0,0,1-60-60V459a60,60,0,0,1,60-60H1493a60,60,0,0,0,60-60V213a60,60,0,0,0-60-60H1003" transform="translate(0.8 -149)"/><line class="g" x1="978.8" y1="4" x2="953.8" y2="4"/></svg>